<?xml version="1.0" encoding="utf-8"?>
<!-- Generator: Adobe Illustrator 18.1.1, SVG Export Plug-In . SVG Version: 6.00 Build 0)  -->
<!DOCTYPE svg PUBLIC "-//W3C//DTD SVG 1.1//EN" "http://www.w3.org/Graphics/SVG/1.1/DTD/svg11.dtd">
<svg version="1.1" id="Layer_1" xmlns="http://www.w3.org/2000/svg" xmlns:xlink="http://www.w3.org/1999/xlink" x="0px" y="0px"
	 viewBox="-294 659.2 334.8 632.2" enable-background="new -294 659.2 334.8 632.2" xml:space="preserve">
<path id="path-1" fill="#999999" d="M-174.8,676.8c26.7-23.6,71.9-23.6,98.6,1c15.4,14.4,21.6,38,20.5,58.5
	c-2.1,32.9-14.4,65.7-40,86.3c5.1,9.2,11.3,20.5,22.6,22.6c21.6,4.1,43.1,9.2,61.6,21.6c10.3,7.2,10.3,20.5,7.2,30.8h-245.4
	c0,0,0,0-1,0v-15.4c1-7.2,5.1-13.3,11.3-17.5c17.5-11.3,39-15.4,58.5-19.5c11.3-3.1,17.5-13.3,22.6-22.6
	c-7.2-6.2-13.3-12.3-18.5-20.5c-17.5-25.7-25.7-58.5-19.5-89.3C-191.2,699.4-185.1,686-174.8,676.8z M-175.8,690.1
	c-14.4,19.5-13.3,45.2-9.2,67.8c6.2,22.6,16.4,45.2,35.9,58.5c2.1,1,4.1,4.1,2.1,7.2c-6.2,13.3-15.4,26.7-29.8,30.8
	c-20.5,4.1-41.1,8.2-58.5,19.5c-5.1,3.1-5.1,9.2-6.2,14.4c77,0,154,0,231,0c-1-5.1,0-11.3-5.1-14.4c-17.5-12.3-39-15.4-59.6-20.5
	c-16.4-4.1-24.6-19.5-30.8-33.9c26.7-19.5,41.1-53.4,42.1-86.3c1-16.4-3.1-32.9-13.3-46.2C-101.9,659.3-153.2,660.3-175.8,690.1z"/>
<path id="path-1_1_" fill="#999999" d="M40.7,1265.7c0,13.3-11.3,24.6-24.6,25.7c-92.4,0-183.8,0-276.2,0c-4.1,0-7.2,0-11.3,0
	c-10.3-1-19.5-8.2-21.6-18.5c-1-3.1-1-7.2-1-10.3c0-60.6,0-122.2,0-182.8c0-5.1,0-10.3,1-15.4c3.1-9.2,11.3-16.4,20.5-17.5
	c2.1,0,4.1,0,5.1,0c91.4,0,182.8,0,274.2,0c4.1,0,7.2,0,11.3,0c9.2,1,17.5,8.2,20.5,16.4c1,4.1,2.1,7.2,2.1,11.3
	C40.7,1138.4,40.7,1202.1,40.7,1265.7z M27.4,1065.5c-2.1-5.1-8.2-8.2-13.3-7.2c-92.4,0-184.8,0-277.2,0c-3.1,0-5.1,0-8.2,0
	c-6.2,1-11.3,7.2-10.3,13.3c0,64.7,0,128.4,0,193c0,5.1,3.1,10.3,7.2,12.3c4.1,2.1,8.2,2.1,12.3,2.1c92.4,0,184.8,0,277.2,0
	c7.2,0,14.4-6.2,14.4-14.4c0-63.7,0-128.4,0-192C29.4,1070.6,28.4,1067.5,27.4,1065.5z M-100,1162c35.9,0,71.9,0,107.8,0
	c0,4.1,0,8.2,0,12.3c-35.9,0-71.9,0-107.8,0C-100,1170.2-100,1166.1-100,1162z M-100,1102.4c0-4.1,0-8.2,0-12.3
	c35.9,0,71.9,0,107.8,0c0,4.1,0,8.2,0,12.3C-28.1,1102.4-64,1102.4-100,1102.4z M7.9,1138.4c-35.9,0-71.9,0-107.8,0
	c0-4.1,0-8.2,0-12.3c35.9,0,71.9,0,107.8,0C7.9,1130.2,7.9,1134.3,7.9,1138.4z M-139,1246.2c-34.9,0-68.8,0-103.7,0
	c-3.1,0-7.2,0-10.3-1c-7.2-2.1-12.3-8.2-13.3-14.4c-1-4.1,0-8.2,0-12.3c0-4.1,1-8.2,3.1-11.3c2.1-3.1,5.1-5.1,9.2-7.2
	c14.4-7.2,28.8-14.4,43.1-21.6c-9.2-5.1-15.4-13.3-19.5-23.6c-4.1-11.3-4.1-23.6,0-34.9c4.1-12.3,13.3-22.6,25.7-26.7
	c6.2-2.1,13.3-3.1,20.5-1c11.3,2.1,20.5,10.3,25.7,19.5c11.3,18.5,8.2,44.2-7.2,58.5c-2.1,2.1-5.1,5.1-8.2,6.2
	c14.4,7.2,27.7,14.4,42.1,21.6c3.1,2.1,6.2,4.1,9.2,6.2c3.1,4.1,4.1,8.2,4.1,13.3c0,4.1,0,9.2-1,13.3
	C-123.6,1240-130.8,1246.2-139,1246.2z M-169.8,1155.8c6.2-10.3,6.2-23.6,1-33.9c-3.1-7.2-8.2-12.3-15.4-15.4
	c-5.1-2.1-11.3-3.1-16.4-1c-8.2,2.1-14.4,8.2-18.5,15.4c-8.2,15.4-4.1,37,10.3,47.2c7.2,5.1,16.4,6.2,24.6,2.1
	C-178,1166.1-172.9,1161-169.8,1155.8z M-132.8,1216.4c0-2.1-2.1-4.1-4.1-5.1c-17.5-9.2-35.9-18.5-53.4-27.7c-1-1-3.1-1-4.1,0
	c-1,0-2.1,1-3.1,1c-17.5,8.2-34.9,17.5-52.4,25.7c-2.1,1-5.1,3.1-5.1,6.2c0,4.1,0,7.2,0,11.3s4.1,7.2,7.2,6.2c35.9,0,72.9,0,108.8,0
	c4.1,0,7.2-3.1,6.2-7.2C-132.8,1223.6-132.8,1219.5-132.8,1216.4z M7.9,1210.3c-35.9,0-71.9,0-107.8,0c0-4.1,0-8.2,0-12.3
	c35.9,0,71.9,0,107.8,0C7.9,1202.1,7.9,1206.2,7.9,1210.3z M7.9,1246.2c-35.9,0-71.9,0-107.8,0c0-4.1,0-8.2,0-12.3
	c35.9,0,71.9,0,107.8,0C7.9,1238,7.9,1242.1,7.9,1246.2z"/>
</svg>
