<?xml version="1.0" encoding="utf-8"?>
<!-- Generator: Adobe Illustrator 18.1.1, SVG Export Plug-In . SVG Version: 6.00 Build 0)  -->
<!DOCTYPE svg PUBLIC "-//W3C//DTD SVG 1.1//EN" "http://www.w3.org/Graphics/SVG/1.1/DTD/svg11.dtd">
<svg version="1.1" id="Layer_1" xmlns="http://www.w3.org/2000/svg" xmlns:xlink="http://www.w3.org/1999/xlink" x="0px" y="0px"
	 viewBox="0 0 200.7 100" enable-background="new 0 0 200.7 100" xml:space="preserve">
<g>
	<path d="M55.5,76.3c-0.1-1.6-1.4-2.8-3-2.8c-4.2,0-4.5,5.4-4.5,8.5c0,3,0.3,8.3,4.4,8.3c1.9,0,3.3-1.4,3.4-3.3h1.2
		c-0.3,2.7-2,4.3-4.7,4.3c-4.8,0-5.5-5.5-5.5-9.1c0-3.8,0.7-9.6,5.8-9.6c2.2,0,4,1.6,4.2,3.8H55.5z"/>
	<path d="M70,73.8h-2.5v16.1H70v1h-6.2v-1h2.5V73.8h-2.5v-1H70V73.8z"/>
	<path d="M78.8,74.5L78.8,74.5l0,16.4h-1.2V72.8h1.7l6.1,15.5l0-0.1V72.8h1.2v18.2h-1.2L78.8,74.5z"/>
	<path d="M100.6,76.3c-0.1-1.6-1.4-2.8-3-2.8c-4.2,0-4.5,5.4-4.5,8.5c0,3,0.3,8.3,4.4,8.3c1.9,0,3.3-1.4,3.4-3.3h1.2
		c-0.3,2.7-2,4.3-4.7,4.3c-4.8,0-5.5-5.5-5.5-9.1c0-3.8,0.7-9.6,5.8-9.6c2.2,0,4,1.6,4.2,3.8H100.6z"/>
	<path d="M115.2,73.8h-2.5v16.1h2.5v1H109v-1h2.5V73.8H109v-1h6.2V73.8z"/>
	<path d="M124,74.5L124,74.5l0,16.4h-1.2V72.8h1.7l6.1,15.5l0-0.1V72.8h1.2v18.2h-1.2L124,74.5z"/>
	<path d="M139,74.5L139,74.5l0,16.4h-1.2V72.8h1.7l6.1,15.5l0-0.1V72.8h1.2v18.2h-1.2L139,74.5z"/>
	<path d="M163.3,90.9H162l-1.6-5.5h-6.1l-1.7,5.5h-1.3l6-18.8L163.3,90.9z M154.5,84.4h5.6l-2.8-9.1L154.5,84.4z"/>
	<path d="M178.1,73.8h-5.2v17.1h-1.2V73.8h-5.2v-1h11.6V73.8z"/>
	<path d="M190.5,73.8h-2.5v16.1h2.5v1h-6.2v-1h2.5V73.8h-2.5v-1h6.2V73.8z"/>
</g>
<g>
	<path d="M44.3,8.3h4.1v57.1h-3.7V15.8h-0.2L31.3,47.5L18.1,15.8L17.9,16v49.4h-3.7V8.3h4.1l13,31.4L44.3,8.3z"/>
	<path d="M98.1,65.4h-4.2L88.7,48H69.3l-5.2,17.4h-4.1L79,6L98.1,65.4z M70.1,44.8h17.8l-9-28.7L70.1,44.8z"/>
	<path d="M112.4,8.3h14.3c6.7,0,11.3,3.6,13.6,8.1c1.9,3.5,3.5,10.1,3.5,20.5c0,14.5-3.6,20.7-4.6,22.2c-2.6,3.7-6.7,6.3-13.6,6.3
		h-13.2V8.3z M116.1,62.2h7.1c6.3,0,11.5-0.9,14.3-7.3c2.2-5.1,2.4-12.6,2.4-18.1s-0.2-13.7-2.6-18.6c-3-6-8-6.7-14-6.7h-7.1V62.2z"
		/>
	<path d="M190.1,11.4h-24.2v23h17.4v3.2h-17.4v24.6h24.7v3.2h-28.5V8.3h27.9V11.4z"/>
</g>
<g>
	<path d="M14,90.5h5.4v-0.2h-2.5V73.4h2.5v-0.2H14v0.2h2.5v16.9H14V90.5z"/>
</g>
<g>
	<path d="M35.5,90.7H36V73.3h-0.3l-0.1,16.6l-6.8-16.6h-0.7v17.4h0.4l0-17L35.5,90.7z"/>
</g>
</svg>
